<svg width="126" height="77" viewBox="0 0 126 77" fill="none" xmlns="http://www.w3.org/2000/svg">
<path d="M118.142 24.6363C118.833 27.3902 118.196 30.4782 116.183 33.7957C114.167 37.1196 110.827 40.5668 106.348 43.9157C97.3937 50.6093 84.1306 56.7264 68.678 60.6078C53.2255 64.4893 38.6459 65.3658 27.5918 63.6978C22.0612 62.8633 17.4893 61.4033 14.1413 59.4268C10.7999 57.4542 8.77882 55.034 8.08709 52.2801C7.39536 49.5262 8.0329 46.4382 10.0455 43.1207C12.0621 39.7968 15.4014 36.3496 19.8812 33.0007C28.8351 26.307 42.0982 20.1899 57.5508 16.3085C73.0034 12.4271 87.5829 11.5506 98.637 13.2186C104.168 14.0531 108.74 15.5131 112.087 17.4895C115.429 19.4622 117.45 21.8824 118.142 24.6363Z" stroke="#5F48E9" stroke-width="3"/>
</svg>
